<?xml version="1.0" standalone="no"?>
<!DOCTYPE svg PUBLIC "-//W3C//DTD SVG 20010904//EN"
 "http://www.w3.org/TR/2001/REC-SVG-20010904/DTD/svg10.dtd">
<svg version="1.0" xmlns="http://www.w3.org/2000/svg"
 width="1920.000000pt" height="1080.000000pt" viewBox="0 0 1920.000000 1080.000000"
 preserveAspectRatio="xMidYMid meet">
<metadata>
Created by potrace 1.13, written by Peter Selinger 2001-2015
</metadata>
<g transform="translate(0.000000,1080.000000) scale(0.100000,-0.100000)"
fill="#000000" stroke="none">
<path d="M4316 10779 c-57 -45 -65 -28 429 -851 499 -829 487 -806 465 -925
-10 -55 -33 -97 -262 -480 l-20 -33 31 0 c17 0 31 -4 31 -9 0 -5 13 -11 29
-14 36 -7 105 -75 120 -118 21 -61 7 -229 -19 -229 -5 0 -11 -9 -15 -19 -3
-10 -19 -24 -35 -31 -17 -7 -30 -16 -30 -21 0 -5 -18 -12 -40 -15 -22 -4 -40
-10 -40 -15 0 -5 -18 -9 -40 -9 -22 0 -40 5 -40 10 0 6 -11 10 -24 10 -14 0
-32 7 -41 16 -9 9 -19 14 -22 11 -7 -8 -73 60 -73 76 0 6 -97 -150 -215 -348
-232 -389 -239 -405 -189 -444 25 -20 39 -21 234 -21 l207 0 180 303 c99 166
202 339 229 384 173 291 367 603 374 603 8 0 65 -90 180 -288 45 -77 45 -77
45 -174 0 -53 3 -94 6 -90 3 4 124 204 268 445 225 375 264 446 273 497 23
124 36 99 -457 920 -246 410 -464 762 -484 783 -20 21 -64 51 -97 68 l-62 29
-435 0 c-424 0 -435 0 -461 -21z"/>
<path d="M10192 9794 l3 -466 190 2 c207 1 280 12 366 55 100 51 182 163 208
283 6 29 11 97 11 151 0 236 -98 371 -307 425 -46 12 -112 16 -267 16 l-206 0
2 -466z m418 241 c64 -33 99 -113 100 -227 1 -177 -71 -268 -212 -268 l-58 0
0 255 0 255 70 0 c44 0 82 -6 100 -15z"/>
<path d="M12500 9797 c0 -255 2 -466 4 -468 2 -2 56 -3 120 -1 l116 3 2 172 3
172 138 3 137 3 0 99 0 99 -137 3 -138 3 0 85 0 85 148 3 147 3 0 99 0 100
-270 0 -270 0 0 -463z"/>
<path d="M7381 10235 c-207 -58 -321 -223 -321 -461 1 -276 127 -439 366 -475
99 -14 264 -1 376 30 l63 18 0 254 0 254 -195 0 -195 0 -3 -97 -3 -98 81 0 80
0 0 -70 c0 -82 -3 -85 -95 -85 -118 1 -184 61 -205 186 -25 149 19 279 112
327 71 37 153 33 313 -13 18 -5 25 6 58 87 20 52 37 97 37 101 0 3 -30 16 -67
28 -90 29 -320 37 -402 14z"/>
<path d="M9155 10236 c-154 -39 -260 -137 -306 -286 -15 -49 -20 -93 -20 -177
-1 -281 124 -440 370 -475 96 -13 245 -1 366 30 l70 18 3 249 c2 192 -1 250
-10 257 -7 4 -95 8 -194 8 -144 0 -184 -3 -193 -14 -8 -9 -11 -45 -9 -98 l3
-83 80 -5 80 -5 0 -70 0 -70 -51 -9 c-113 -19 -207 38 -239 146 -45 151 5 322
108 369 53 23 160 25 237 3 94 -27 89 -29 131 74 l38 92 -29 15 c-80 41 -324
59 -435 31z"/>
<path d="M7980 9775 l0 -465 209 0 c184 0 217 2 277 21 80 25 162 76 204 127
113 137 138 398 55 568 -34 70 -119 146 -192 174 -91 34 -144 40 -354 40
l-199 0 0 -465z m431 232 c32 -17 50 -37 69 -72 22 -44 25 -61 25 -155 -1
-124 -21 -180 -79 -225 -32 -24 -49 -29 -117 -33 l-79 -5 0 257 0 256 68 0
c53 0 79 -5 113 -23z"/>
<path d="M14536 10148 c-13 -29 -26 -63 -30 -75 -4 -12 -30 -39 -59 -60 -67
-48 -68 -50 -65 -103 l3 -45 43 -3 42 -3 0 -169 c0 -93 5 -192 11 -220 13 -60
55 -114 107 -135 49 -21 201 -20 269 2 l53 17 0 94 c0 86 -2 94 -17 87 -10 -4
-45 -9 -79 -12 -89 -8 -94 1 -94 189 l0 147 88 3 87 3 0 94 0 93 -85 2 -85 1
-3 73 -3 72 -80 0 -80 0 -23 -52z"/>
<path d="M11211 10038 c-65 -25 -134 -91 -161 -153 -46 -108 -49 -251 -8 -363
29 -81 104 -152 188 -180 89 -30 269 -31 364 -2 l66 21 0 94 c0 91 -4 106 -25
86 -21 -20 -128 -41 -204 -41 -79 0 -81 0 -121 38 -22 22 -40 48 -40 60 0 21
3 22 218 24 l217 3 -1 100 c-1 112 -14 162 -54 218 -63 86 -141 117 -289 116
-72 0 -109 -5 -150 -21z m214 -158 c29 -11 63 -76 47 -92 -5 -5 -51 -7 -103
-6 -94 3 -94 3 -91 28 1 14 16 37 32 53 32 29 69 34 115 17z"/>
<path d="M11803 10052 l-122 -3 14 -37 c7 -20 55 -145 105 -277 50 -132 105
-277 122 -323 l31 -83 125 3 126 3 39 100 c21 55 67 177 102 270 34 94 77 206
94 249 18 43 30 84 28 90 -3 7 -45 10 -129 8 l-125 -3 -37 -127 c-21 -70 -52
-174 -70 -232 l-32 -104 -21 74 c-11 41 -39 143 -62 225 -23 83 -48 155 -54
160 -7 6 -63 9 -134 7z"/>
<path d="M13300 10051 c-96 -31 -172 -102 -205 -192 -16 -43 -20 -79 -20 -175
0 -119 1 -122 35 -190 40 -78 89 -121 175 -153 81 -31 273 -30 365 2 l65 22 3
79 c2 44 1 85 -2 91 -3 9 -23 6 -73 -11 -90 -31 -213 -33 -260 -4 -30 18 -63
65 -63 90 0 7 73 10 221 10 l221 0 -5 113 c-2 61 -10 128 -16 148 -16 51 -75
116 -135 146 -45 24 -64 27 -166 30 -63 1 -126 -1 -140 -6z m201 -190 c17 -17
29 -40 29 -55 l0 -26 -100 0 c-110 0 -114 3 -84 61 29 56 108 67 155 20z"/>
<path d="M13958 10045 c-98 -31 -158 -124 -144 -222 13 -99 65 -152 201 -208
118 -48 150 -81 106 -105 -31 -16 -109 -12 -191 11 -136 37 -121 46 -118 -67
l3 -99 40 -14 c25 -9 94 -16 180 -19 124 -3 146 -1 197 18 93 35 148 112 148
210 0 110 -64 186 -203 240 -100 39 -134 64 -116 86 17 21 95 17 174 -10 39
-14 71 -24 71 -23 5 6 64 151 64 157 0 4 -28 18 -62 31 -81 30 -275 37 -350
14z"/>
<path d="M7351 8995 c-110 -31 -196 -124 -222 -241 -16 -69 -5 -84 61 -84 l48
0 7 43 c11 66 48 122 98 146 117 57 251 -6 264 -124 11 -91 -12 -125 -305
-440 -117 -126 -192 -214 -190 -224 3 -14 35 -16 313 -16 l310 0 0 60 0 60
-187 5 -186 5 125 135 c208 224 251 300 241 423 -9 105 -63 189 -151 231 -67
33 -154 41 -226 21z"/>
<path d="M7978 8997 c-176 -50 -262 -238 -245 -537 13 -218 71 -336 194 -397
145 -71 315 -7 392 147 45 89 56 150 56 315 0 160 -12 221 -60 315 -64 125
-209 192 -337 157z m176 -151 c68 -51 106 -169 106 -326 0 -158 -38 -275 -107
-327 -31 -24 -46 -28 -99 -28 -55 0 -67 4 -101 31 -21 17 -48 51 -60 75 -45
88 -54 334 -17 456 19 60 65 120 108 139 48 22 128 13 170 -20z"/>
<path d="M9258 8768 c-203 -306 -212 -325 -213 -443 0 -81 3 -95 29 -143 52
-92 137 -144 241 -146 121 -2 226 55 274 149 22 42 26 63 26 140 0 103 -14
140 -73 200 -50 51 -114 79 -184 79 l-57 1 16 25 c9 14 58 87 109 164 51 76
90 144 87 151 -4 12 -76 65 -88 65 -3 0 -78 -109 -167 -242z m170 -315 c97
-72 97 -195 -1 -267 -22 -17 -43 -21 -97 -21 -76 0 -107 16 -147 75 -52 76
-13 191 77 229 40 17 136 8 168 -16z"/>
<path d="M8531 8938 c-37 -66 -30 -78 50 -78 l59 0 0 -393 c0 -292 3 -396 12
-405 7 -7 30 -12 53 -12 23 0 46 5 53 12 17 17 17 899 0 916 -8 8 -46 12 -104
12 l-92 0 -31 -52z"/>
<path d="M10107 8960 c-57 -15 -90 -35 -129 -78 -46 -51 -62 -100 -55 -173 9
-105 70 -177 195 -231 150 -65 177 -82 199 -121 33 -59 -3 -134 -74 -158 -52
-17 -175 -6 -261 24 l-72 25 0 -69 0 -69 38 -17 c30 -14 67 -17 192 -18 l155
0 55 31 c67 38 106 91 122 166 10 49 9 65 -5 111 -26 82 -70 120 -222 192
-148 70 -175 95 -175 159 0 43 20 76 57 95 34 17 142 13 213 -9 36 -11 68 -20
71 -20 7 0 49 93 49 109 0 34 -266 73 -353 51z"/>
<path d="M10685 8726 c-95 -44 -149 -126 -165 -249 -23 -186 38 -322 171 -382
59 -26 67 -27 188 -23 103 3 133 7 160 23 31 18 34 24 34 68 0 26 -3 50 -6 53
-2 3 -37 -5 -76 -16 -95 -29 -201 -26 -249 8 -38 27 -69 83 -74 132 l-3 35
224 3 224 2 -6 78 c-11 142 -58 225 -151 268 -72 34 -200 34 -271 0z m224
-112 c32 -27 58 -91 48 -118 -9 -23 -275 -24 -283 -1 -11 27 7 68 45 107 36
36 42 38 99 38 50 0 66 -4 91 -26z"/>
<path d="M11310 8736 c-57 -17 -100 -34 -100 -40 0 -12 44 -96 50 -96 4 0 33
9 65 20 33 11 84 20 117 20 52 0 63 -4 88 -28 33 -33 51 -109 29 -123 -8 -5
-49 -9 -91 -9 -145 0 -253 -39 -298 -106 -21 -31 -25 -49 -25 -108 1 -83 17
-122 72 -163 33 -25 46 -28 129 -31 103 -4 143 8 194 59 16 16 31 29 34 29 3
0 10 -18 16 -40 l11 -40 55 0 55 0 -3 263 c-3 299 -7 316 -87 372 -40 28 -48
30 -154 32 -71 2 -128 -2 -157 -11z m256 -360 c3 -8 1 -39 -6 -69 -17 -85 -72
-127 -164 -127 -61 0 -90 18 -102 64 -15 60 25 112 106 137 47 14 160 10 166
-5z"/>
<path d="M11926 8743 c-28 -7 -87 -46 -111 -72 -13 -16 -20 -41 -23 -85 -7
-106 30 -149 180 -212 148 -63 180 -92 158 -144 -6 -15 -23 -32 -36 -39 -43
-19 -162 -13 -236 13 l-68 23 0 -62 c0 -58 2 -63 28 -75 36 -18 255 -26 308
-11 91 24 154 100 154 185 0 96 -53 148 -218 216 -122 50 -154 87 -118 135 22
30 134 33 210 6 32 -11 62 -18 67 -16 15 10 42 96 33 104 -26 25 -110 41 -207
40 -56 -1 -111 -4 -121 -6z"/>
<path d="M12485 8727 c-28 -13 -69 -45 -91 -70 -55 -62 -76 -132 -76 -250 1
-148 48 -245 150 -304 41 -24 60 -28 148 -31 86 -4 107 -1 151 18 58 25 112
76 145 140 21 41 23 58 23 180 0 127 -2 138 -27 186 -15 28 -43 65 -62 82 -65
56 -92 66 -206 70 -94 3 -110 0 -155 -21z m230 -113 c43 -28 66 -71 76 -139
13 -92 -2 -187 -37 -232 -72 -94 -209 -78 -266 30 -31 60 -32 213 -1 272 25
48 51 73 89 85 39 12 108 4 139 -16z"/>
<path d="M13255 8729 c-22 -12 -49 -30 -61 -40 -28 -26 -32 -24 -40 16 l-6 35
-59 0 -59 0 0 -330 0 -331 70 3 70 3 3 205 c3 182 5 210 24 251 35 78 118 115
197 89 67 -22 70 -35 76 -305 l5 -240 73 -3 73 -3 -3 263 c-3 246 -4 266 -24
303 -43 80 -95 105 -216 105 -65 0 -92 -5 -123 -21z"/>
<path d="M4763 7133 c30 -54 440 -730 553 -913 51 -82 104 -170 561 -937 112
-189 208 -343 212 -343 4 0 53 77 110 171 81 134 105 183 113 230 24 124 36
99 -460 925 -247 412 -464 764 -482 781 -18 18 -60 46 -93 63 l-60 30 -229 0
c-126 0 -227 -3 -225 -7z"/>
<path d="M10190 6151 c0 -253 -1 -464 -2 -468 -2 -5 83 -9 187 -11 150 -2 205
1 260 14 170 40 277 144 320 311 19 71 19 241 1 308 -30 115 -100 202 -199
249 -84 39 -131 46 -359 53 l-208 6 0 -462z m385 238 c96 -27 143 -127 132
-281 -10 -150 -68 -216 -197 -226 l-70 -5 0 255 c0 140 3 258 7 261 10 11 84
8 128 -4z"/>
<path d="M12507 6603 c-4 -3 -7 -215 -7 -470 l0 -463 120 0 120 0 2 173 3 172
138 3 138 3 -3 102 -3 102 -138 3 -138 3 3 82 3 82 148 3 147 3 0 104 0 105
-263 0 c-145 0 -267 -3 -270 -7z"/>
<path d="M7387 6580 c-207 -52 -327 -223 -327 -466 1 -240 94 -391 280 -454
110 -37 351 -27 498 21 l32 11 0 254 0 254 -200 0 -200 0 0 -100 0 -100 80 0
81 0 -3 -72 -3 -73 -80 -3 c-106 -3 -147 19 -189 101 -27 53 -30 67 -30 155 0
194 74 277 244 275 49 -1 97 -8 139 -22 35 -12 65 -21 66 -19 12 14 76 190 71
195 -4 4 -32 16 -64 26 -65 22 -329 33 -395 17z"/>
<path d="M9141 6575 c-75 -21 -151 -67 -199 -119 -82 -89 -114 -188 -113 -349
2 -278 132 -439 376 -466 106 -12 304 8 403 40 l32 11 -2 251 -3 252 -197 3
-198 2 -5 -22 c-3 -13 -5 -57 -3 -98 l3 -75 80 -5 80 -5 0 -70 0 -70 -77 -3
c-62 -2 -85 1 -117 17 -72 37 -111 121 -111 241 0 126 45 216 128 256 51 24
167 22 252 -5 35 -11 68 -17 71 -13 4 4 22 46 42 94 39 98 40 95 -38 123 -71
25 -328 31 -404 10z"/>
<path d="M7980 6114 l0 -466 223 4 c253 5 289 13 388 81 103 70 158 172 179
329 27 203 -53 388 -198 462 -93 47 -153 56 -381 56 l-211 0 0 -466z m379 255
c59 -13 97 -42 123 -92 19 -36 22 -58 22 -152 0 -100 -2 -115 -27 -161 -37
-73 -81 -98 -171 -98 l-71 -1 -3 245 c-1 134 0 250 3 257 5 16 63 16 124 2z"/>
<path d="M14521 6458 c-34 -73 -46 -87 -91 -116 l-51 -33 3 -52 3 -52 43 -3
42 -3 0 -169 c0 -197 10 -258 51 -305 46 -52 100 -68 216 -63 59 3 113 11 136
21 l37 16 0 92 c0 90 0 91 -22 85 -13 -4 -46 -9 -74 -13 -44 -5 -55 -2 -73 16
-20 20 -21 31 -21 171 l0 149 88 3 87 3 0 95 0 95 -87 3 -88 3 0 69 0 70 -80
0 -81 0 -38 -82z"/>
<path d="M11295 6404 c-137 -32 -214 -94 -255 -204 -21 -54 -25 -82 -24 -170
1 -173 53 -269 182 -332 66 -33 68 -33 212 -33 121 1 153 4 195 21 l50 20 3
92 c1 51 1 92 0 92 -2 0 -28 -10 -58 -21 -69 -27 -207 -37 -250 -19 -37 15
-80 64 -80 91 0 18 11 19 218 21 l217 3 0 95 c0 52 -6 115 -13 140 -36 123
-143 198 -294 205 -46 2 -92 2 -103 -1z m145 -189 c17 -11 42 -66 36 -81 -4
-11 -28 -14 -100 -14 -52 0 -98 4 -101 10 -3 5 1 25 10 43 28 59 98 77 155 42z"/>
<path d="M13310 6395 c-117 -33 -190 -108 -225 -229 -24 -81 -17 -241 13 -308
30 -67 97 -137 162 -167 52 -24 64 -26 205 -26 130 0 157 3 200 22 l50 21 3
77 c4 108 3 109 -60 84 -75 -30 -212 -38 -261 -14 -37 17 -59 43 -71 82 l-7
23 218 2 218 3 3 94 c4 131 -14 188 -81 256 -35 34 -69 57 -102 69 -72 24
-197 30 -265 11z m195 -196 c14 -18 25 -41 23 -53 -3 -19 -10 -21 -96 -24
-104 -3 -115 4 -88 57 21 39 41 50 93 51 34 0 46 -5 68 -31z"/>
<path d="M14015 6402 c-57 -11 -131 -49 -160 -83 -72 -86 -50 -238 43 -302 21
-15 77 -43 123 -63 88 -37 119 -58 119 -80 0 -42 -120 -42 -248 0 -54 17 -75
21 -78 12 -3 -7 -4 -52 -2 -101 l3 -88 40 -15 c29 -12 81 -16 195 -16 143 -1
159 1 202 23 93 46 135 123 125 231 -9 105 -59 155 -225 224 -50 20 -92 43
-95 50 -17 45 65 53 168 17 32 -12 64 -21 71 -21 6 0 26 34 44 76 38 87 41 83
-60 115 -70 22 -201 32 -265 21z"/>
<path d="M11687 6393 c-2 -5 57 -169 131 -366 l136 -358 125 3 125 3 53 140
c149 393 213 565 213 575 0 7 -41 10 -127 8 l-127 -3 -32 -105 c-18 -58 -42
-139 -54 -180 -12 -41 -29 -99 -39 -128 l-17 -54 -48 174 c-27 95 -58 201 -68
236 l-19 62 -124 0 c-68 0 -126 -3 -128 -7z"/>
<path d="M7391 5345 c-110 -31 -196 -124 -222 -241 -16 -69 -5 -84 61 -84 l48
0 7 43 c11 66 48 122 98 146 117 57 251 -6 264 -124 11 -91 -12 -125 -305
-440 -117 -126 -192 -214 -190 -224 3 -14 35 -16 313 -16 l310 0 0 60 0 60
-187 5 -186 5 125 135 c208 224 251 300 241 423 -9 105 -63 189 -151 231 -67
33 -154 41 -226 21z"/>
<path d="M8018 5347 c-176 -50 -262 -238 -245 -537 13 -218 71 -336 194 -397
145 -71 315 -7 392 147 45 89 56 150 56 315 0 160 -12 221 -60 315 -64 125
-209 192 -337 157z m176 -151 c68 -51 106 -169 106 -326 0 -158 -38 -275 -107
-327 -31 -24 -46 -28 -99 -28 -55 0 -67 4 -101 31 -21 17 -48 51 -60 75 -45
88 -54 334 -17 456 19 60 65 120 108 139 48 22 128 13 170 -20z"/>
<path d="M9298 5118 c-203 -306 -212 -325 -213 -443 0 -81 3 -95 29 -143 52
-92 137 -144 241 -146 121 -2 226 55 274 149 22 42 26 63 26 140 0 103 -14
140 -73 200 -50 51 -114 79 -184 79 l-57 1 16 25 c9 14 58 87 109 164 51 76
90 144 87 151 -4 12 -76 65 -88 65 -3 0 -78 -109 -167 -242z m170 -315 c97
-72 97 -195 -1 -267 -22 -17 -43 -21 -97 -21 -76 0 -107 16 -147 75 -52 76
-13 191 77 229 40 17 136 8 168 -16z"/>
<path d="M8571 5288 c-37 -66 -30 -78 50 -78 l59 0 0 -393 c0 -292 3 -396 12
-405 7 -7 30 -12 53 -12 23 0 46 5 53 12 17 17 17 899 0 916 -8 8 -46 12 -104
12 l-92 0 -31 -52z"/>
<path d="M10078 5291 c-74 -29 -108 -60 -136 -119 -20 -45 -24 -65 -20 -116 3
-34 12 -75 21 -91 22 -43 79 -97 129 -121 24 -12 83 -40 131 -63 96 -46 127
-80 127 -138 0 -44 -41 -90 -93 -104 -73 -20 -191 -2 -309 46 -16 6 -18 0 -18
-62 0 -64 2 -71 24 -81 80 -36 311 -42 388 -9 20 8 57 34 83 58 103 95 95 268
-18 350 -42 31 -60 40 -190 98 -90 40 -127 79 -127 135 0 43 20 76 57 95 44
23 154 13 269 -24 18 -6 24 1 44 50 13 32 19 60 14 65 -5 4 -43 17 -85 29 -97
27 -224 28 -291 2z"/>
<path d="M10745 5091 c-130 -35 -204 -124 -225 -271 -26 -186 45 -337 186
-390 52 -19 73 -21 174 -18 75 3 128 10 153 21 37 16 37 16 37 76 l0 59 -57
-20 c-40 -15 -84 -21 -143 -22 -73 -1 -90 2 -123 23 -42 26 -73 78 -79 131
l-3 35 220 5 220 5 3 34 c5 49 -16 158 -38 201 -23 45 -78 95 -128 116 -43 18
-154 27 -197 15z m150 -125 c36 -24 58 -62 59 -104 l1 -37 -140 0 c-137 0
-140 0 -143 22 -2 13 7 41 19 63 41 73 138 99 204 56z"/>
<path d="M11375 5094 c-44 -7 -154 -44 -160 -54 -5 -7 27 -83 41 -98 1 -2 29
6 61 18 36 14 82 23 121 24 59 1 66 -1 91 -30 32 -35 48 -98 31 -119 -7 -8
-48 -14 -128 -17 -102 -4 -124 -8 -175 -32 -99 -48 -136 -136 -103 -247 26
-92 86 -129 208 -129 82 0 137 20 177 64 14 14 28 26 32 26 5 0 14 -18 20 -40
l12 -40 54 0 53 0 0 243 c0 269 -8 322 -57 369 -16 15 -46 34 -67 43 -40 17
-156 27 -211 19z m189 -371 c11 -27 -5 -101 -28 -136 -28 -42 -80 -67 -139
-67 -40 0 -54 5 -78 29 -33 33 -36 56 -14 107 18 43 62 63 160 74 39 4 75 8
81 9 7 0 15 -7 18 -16z"/>
<path d="M11947 5090 c-53 -14 -87 -33 -122 -69 -25 -27 -30 -41 -33 -96 -3
-52 0 -70 16 -97 24 -39 60 -67 117 -93 205 -91 228 -109 205 -165 -27 -64
-177 -67 -322 -5 -16 6 -18 0 -18 -58 l0 -65 38 -14 c23 -8 84 -13 167 -13
120 0 134 2 180 26 28 14 60 40 72 58 28 42 39 112 24 161 -22 74 -39 86 -259
186 -65 29 -82 47 -82 83 0 55 122 71 233 32 l58 -20 19 42 c11 23 20 49 20
58 0 36 -224 71 -313 49z"/>
<path d="M12565 5094 c-112 -29 -180 -80 -217 -164 -39 -88 -38 -266 1 -356
23 -52 84 -113 136 -139 57 -27 197 -33 262 -11 65 22 127 75 161 140 25 48
27 59 27 186 0 127 -2 138 -27 185 -53 100 -138 153 -256 160 -37 2 -76 2 -87
-1z m129 -128 c77 -32 118 -147 97 -276 -19 -116 -54 -153 -149 -158 -85 -4
-124 18 -155 86 -32 69 -31 208 2 276 37 75 124 106 205 72z"/>
<path d="M13282 5082 c-29 -11 -66 -32 -82 -47 -17 -16 -32 -27 -34 -24 -2 2
-8 20 -13 39 -9 35 -10 35 -64 35 l-54 0 -3 -333 -2 -333 70 3 69 3 3 205 c3
195 4 207 28 254 30 60 63 86 117 93 57 8 111 -13 134 -51 17 -28 19 -52 19
-268 l0 -238 75 0 75 0 0 238 c-1 255 -7 308 -46 359 -55 73 -188 102 -292 65z"/>
<path d="M4324 3457 c-44 -38 -37 -68 53 -218 44 -74 249 -413 454 -754 407
-676 407 -677 389 -791 -11 -64 -3 -48 -156 -307 -68 -114 -124 -209 -124
-211 0 -2 20 -6 45 -9 25 -4 51 -11 58 -17 50 -42 73 -60 78 -60 4 0 12 -20
19 -45 7 -25 17 -45 21 -45 5 0 9 -27 9 -60 0 -33 -4 -60 -8 -60 -4 0 -13 -19
-19 -43 -8 -28 -20 -48 -36 -56 -14 -7 -31 -24 -38 -37 -7 -14 -18 -23 -25
-20 -7 3 -14 0 -16 -6 -6 -17 -167 -16 -177 1 -5 7 -14 10 -20 7 -6 -4 -11 -2
-11 3 0 6 -6 11 -13 11 -6 0 -27 16 -45 36 -28 31 -36 34 -47 23 -13 -14 -368
-606 -398 -666 -24 -45 -21 -80 8 -108 24 -25 25 -25 232 -25 l208 0 194 328
c106 180 204 343 216 362 12 19 78 127 145 240 139 231 230 374 234 368 2 -1
49 -79 105 -173 118 -196 141 -258 124 -338 -6 -29 -10 -53 -9 -54 6 -7 532
889 543 926 16 52 12 148 -9 196 -31 73 -897 1500 -929 1534 -20 20 -59 47
-85 61 l-49 25 -447 3 -446 3 -28 -24z"/>
</g>
</svg>
